<?xml version="1.0" encoding="UTF-8"?>
<svg width="1200pt" height="1200pt" version="1.1" viewBox="0 0 1200 1200" xmlns="http://www.w3.org/2000/svg">
 <path d="m60 0h1080c33.137 0 60 33.137 60 60v1080c0 33.137-26.863 60-60 60h-1080c-33.137 0-60-33.137-60-60v-1080c0-33.137 26.863-60 60-60z" fill="#d2d2d2"/>
 <path d="m788.48 273.12h-376.97c-24.945 0.03125-45.168 20.25-45.195 45.195v146.12c0.23438 24.766 20.398 44.754 45.195 44.723h376.97c24.797 0.03125 44.957-19.957 45.195-44.723v-146.12c-0.03125-24.945-20.25-45.168-45.195-45.195zm-265.54 92.047-29.02 69.992c-5.1367 11.719-18.715 17.18-30.523 12.281-11.809-4.9297-17.504-18.422-12.781-30.316l29.254-70.02v0.03125c5.0781-11.75 18.656-17.211 30.465-12.281 11.777 4.9297 17.418 18.449 12.605 30.316zm113.09 0-29.047 70.02 0.03125-0.03125c-5.1055 11.719-18.656 17.152-30.434 12.223-11.777-4.9297-17.418-18.391-12.637-30.258l29.02-70.02v0.03125c5.0781-11.75 18.656-17.211 30.465-12.281 11.777 4.9297 17.418 18.449 12.605 30.316zm113.33 0-29.254 69.992c-5.0781 11.75-18.656 17.238-30.465 12.309-11.809-4.9297-17.445-18.48-12.605-30.348l29.047-70.02-0.03125 0.03125c5.1055-11.777 18.715-17.238 30.555-12.34 11.836 4.9297 17.504 18.449 12.754 30.375zm-11.012 190.82v45.43h0.03125c-0.03125 13.312-5.3711 26.066-14.789 35.484-9.4453 9.3867-22.23 14.641-35.57 14.613h-64.621c0.44141 19.75-4.9883 53.902 18.035 62.289 33.094 13.371 57.711 41.918 66.066 76.605 8.3555 34.715-0.5625 71.32-23.941 98.305-23.379 26.984-58.332 41.031-93.875 37.699-27.57-2.0078-53.344-14.406-72.09-34.715-18.746-20.309-29.047-46.996-28.84-74.625 0-12.898 10.301-23.41 23.203-23.645 6.2305-0.17578 12.281 2.1836 16.738 6.5547 4.457 4.3672 6.9375 10.363 6.9062 16.621-0.91406 33.477 25.062 61.551 58.539 63.203 31.559 3.1289 60.605-17.477 68.102-48.293 7.4688-30.82-8.8867-62.465-38.375-74.156-29.105-12.781-47.734-41.742-47.293-73.504v-32.324h-64.621c-13.344 0.03125-26.125-5.2266-35.57-14.613-9.418-9.418-14.762-22.168-14.789-35.484v-45.43z"/>
</svg>
