<?xml version="1.0" encoding="UTF-8"?>
<svg width="1200pt" height="1200pt" version="1.1" viewBox="0 0 1200 1200" xmlns="http://www.w3.org/2000/svg">
 <path d="m1000.8 591.61c18-210-283.22-378-370.78-396-140.39-27.609-157.22-19.219-242.39-81.609-20.391-66-142.82-78-171.61 0-128.39 13.219-153.61 42-151.22 87.609 2.3906 57.609 84 104.39 130.78 157.22 52.781 57.609 127.22 150 187.22 223.22-28.781 8.3906-86.391 4.7812-117.61-2.3906-3.6094-13.219-15.609-22.781-30-22.781-16.781 0-31.219 14.391-31.219 31.219 0 16.781 14.391 31.219 31.219 31.219 8.3906 0 15.609-3.6094 20.391-8.3906 31.219 4.7812 79.219 6 90 7.2188 14.391 2.3906 16.781 20.391-19.219 32.391-26.391 8.3906-60 7.2188-82.781 4.7812-6-4.7812-13.219-8.3906-21.609-8.3906-16.781 0-31.219 14.391-31.219 31.219 0 16.781 14.391 31.219 31.219 31.219 13.219 0 24-7.2188 28.781-19.219 39.609 1.2188 105.61-6 127.22-19.219 27.609-16.781-19.219 40.781-52.781 44.391-3.6094-1.2188-7.2188-2.3906-9.6094-2.3906-16.781 0-31.219 14.391-31.219 31.219 0 16.781 14.391 31.219 31.219 31.219 16.781 0 30-12 31.219-28.781 25.219-18 62.391-57.609 90-102 31.219 33.422 67.219 63.422 109.22 87.422-14.391 42-30 78-40.781 84-28.781 18-104.39 30-139.22 26.391-4.7812-9.6094-14.391-15.609-26.391-16.781-18-1.2188-33.609 12-36 30-1.2188 18 12 33.609 30 36 10.781 1.2188 21.609-3.6094 28.781-12 33.609-1.2188 93.609-12 106.78-13.219 15.609-1.2188 22.781 18-13.219 38.391-28.781 16.781-68.391 22.781-92.391 25.219-4.7812-2.3906-9.6094-4.7812-15.609-4.7812-18-1.2188-33.609 12-36 30-1.2188 18 12 33.609 30 36 15.609 1.2188 30-8.3906 34.781-24 42-7.2188 117.61-32.391 139.22-51.609 24-22.781-7.2188 39.609-39.609 57.609-1.2188 0-2.3906-1.2188-4.7812-1.2188-18-1.2188-33.609 12-36 30-1.2188 18 12 33.609 30 36 18 1.2188 33.609-12 36-30v-4.7812c28.781-34.781 70.781-108 85.219-177.61 3.6094-18 9.6094-40.781 15.609-63.609 27.609 12 56.391 22.781 87.609 32.391 13.219 31.219 40.781 51.609 72 56.391 64.781 9.6094 202.78-62.391 216-55.219 13.219 7.2188-78 78-124.78 85.219-33.609 4.7812-108-1.2188-148.78-6-4.7812-14.391-18-24-33.609-24-19.219 0-36 15.609-36 36 0 19.219 15.609 36 36 36 10.781 0 19.219-4.7812 26.391-12l94.781 18-103.22 69.609c-4.7812-2.3906-10.781-4.7812-16.781-4.7812-19.219 0-36 15.609-36 36 0 19.219 15.609 36 36 36 16.781 0 31.219-12 34.781-28.781 38.391-26.391 116.39-76.781 129.61-72 10.781 3.6094-25.219 63.609-51.609 104.39h-4.7812c-19.219 0-36 15.609-36 36 0 19.219 15.609 36 36 36 19.219 0 36-15.609 36-36 0-4.7812-1.2188-8.3906-2.3906-12 22.781-36 60-91.219 78-110.39 27.609-30 231.61-219.61 242.39-278.39 10.781-68.438-24-111.66-133.22-112.83zm-702-313.22c-31.219 0-57.609-25.219-57.609-57.609 0-31.219 25.219-57.609 57.609-57.609 31.219 0 57.609 25.219 57.609 57.609 0 32.438-26.391 57.609-57.609 57.609z" fill="#676767"/>
 <path d="m297.61 202.78c-10.781 0-18 8.3906-18 18 0 10.781 8.3906 18 18 18 10.781 0 18-8.3906 18-18 0-9.5625-8.3906-18-18-18z" fill="#676767"/>
</svg>
