<?xml version="1.0" encoding="UTF-8" standalone="no"?>
<svg
   width="1200pt"
   height="1200pt"
   version="1.1"
   viewBox="0 0 1200 1200"
   id="svg5"
   sodipodi:docname="nn.svg"
   inkscape:version="1.4 (e7c3feb1, 2024-10-09)"
   xmlns:inkscape="http://www.inkscape.org/namespaces/inkscape"
   xmlns:sodipodi="http://sodipodi.sourceforge.net/DTD/sodipodi-0.dtd"
   xmlns="http://www.w3.org/2000/svg"
   xmlns:svg="http://www.w3.org/2000/svg">
  <defs
     id="defs5" />
  <sodipodi:namedview
     id="namedview5"
     pagecolor="#ffffff"
     bordercolor="#000000"
     borderopacity="0.25"
     inkscape:showpageshadow="2"
     inkscape:pageopacity="0.0"
     inkscape:pagecheckerboard="0"
     inkscape:deskcolor="#d1d1d1"
     inkscape:document-units="pt"
     inkscape:zoom="0.26"
     inkscape:cx="790.38462"
     inkscape:cy="800"
     inkscape:window-width="1392"
     inkscape:window-height="647"
     inkscape:window-x="0"
     inkscape:window-y="44"
     inkscape:window-maximized="0"
     inkscape:current-layer="svg5" />
  <path
     d="m331.72 536.52c1.5117-11.336 27.207-28.719 27.207-28.719s-12.848-41.562-21.16-54.41c-8.3125-12.848-22.672-20.402-37.031-41.562-14.359-21.16-21.16-14.359-21.16-14.359 0 31.738 6.0469 71.793 25.695 95.977 19.648 24.18 26.449 43.074 26.449 43.074z"
     fill="#676767"
     id="path2"
     style="fill:#3a3a3a;fill-opacity:1" />
  <path
     d="m694.46 663.48c-28.715 13.605-79.348 13.605-79.348 13.605s17.383 30.23 18.137 37.785c0.75391 7.5586-12.848 38.543-40.809 47.609-27.961 8.3125-21.16 17.383-10.578 22.672 10.578 5.2891 38.543 2.2656 52.898-0.75391 13.602-3.0234 9.8242-15.113 30.23-43.074 20.402-28.723 25.691-50.637 25.691-50.637z"
     fill="#676767"
     id="path3"
     style="fill:#3a3a3a;fill-opacity:1" />
  <path
     d="m456.41 739.81c0.75391-7.5586 8.3125-41.562 8.3125-41.562s-3.0234-8.3125-6.8008-17.383c-3.0234-8.3125-24.938-24.938-33.25-28.719-8.3125-4.5352-19.648 0-19.648 0s2.2656 13.602 5.2891 28.719c3.0234 15.113 15.113 38.543 15.871 51.387 0.75391 12.848-9.8242 27.207-23.426 38.543-13.602 12.09-23.426 13.602-22.672 22.672 0.75391 4.5352 25.695 7.5586 36.273 2.2656 10.578-5.2891 20.402-15.113 32.496-27.207 12.848-11.332 6.0469-21.156 7.5547-28.715z"
     fill="#676767"
     id="path4"
     style="fill:#3a3a3a;fill-opacity:1" />
  <path
     d="m960.48 763.99c-18.137-11.336-59.703-40.809-71.039-97.488-14.359-71.793-20.402-157.95-81.617-216.13-61.969-58.945-110.34-74.816-169.28-71.793-49.121 2.2656-139.81 52.898-182.88 82.371-14.355 43.078-44.582 70.281-44.582 70.281 12.09-15.113 21.914-39.297 26.449-52.898 12.09-21.914-6.8008-58.945-3.7773-75.57 3.0234-17.383-9.8242-14.359-9.8242-14.359-47.609 28.719-47.609 80.105-47.609 89.93 0 6.8008-1.5117 24.938-2.2656 35.52-5.2891 1.5117-11.336 3.7773-16.625 7.5586-18.895 14.359-41.562 76.328-60.457 102.02-18.895 25.695-49.879 37.031-49.879 47.609 0 9.8242 11.336 37.031 20.402 37.031h6.8008c-5.2891 6.8008-11.336 20.402-8.3125 42.32 4.5352 35.52 9.8242 56.68-7.5586 52.898-9.8242-2.2656-9.0703-9.0703-6.0469-13.602 2.2656-3.0234 0.75391-7.5586-3.0234-9.0703-3.0234-1.5117-6.8008 0-8.3125 3.0234-2.2656 4.5352-5.2891 12.09-3.0234 17.383 3.0234 9.8242 30.23 30.984 43.074 2.2656 6.0469-12.848 0.75391-36.273-2.2656-56.68-1.5117-9.8242 2.2656-19.648 6.8008-26.449 1.5117 1.5117 4.5352 3.0234 9.0703 3.0234 15.871 0 24.184-30.23 47.609-44.586 23.426-14.359 49.879-43.074 70.281-44.586 20.402-1.5117 61.969 31.738 67.258 58.945 6.0469 27.207 21.16 83.129 9.8242 94.465-11.336 11.336-11.336 0-30.23 12.848-9.0703 6.0469-12.848 11.336-13.602 15.113-1.5117 3.0234 0.75391 6.8008 4.5352 6.8008 12.09 0 44.586 0.75391 53.656-3.0234 11.336-4.5352 31.738-15.871 30.23-30.23-1.5117-14.359 6.0469-60.457 9.8242-70.281 4.5352-9.8242 22.672-61.969 27.207-95.977 0 0 6.0469 20.402 1.5117 44.586 0 0 113.36-1.5117 137.54-27.207 0 0 20.402 34.762 21.16 51.387 1.5117 17.383 4.5352 81.617-9.8242 95.977 0 0-31.738 9.8242-38.543 18.895-6.8008 8.3125-6.8008 15.871 21.16 15.871 27.961 0 43.074-3.0234 57.434-21.16 14.359-18.895 35.52-81.617 43.074-95.977 6.8008-14.359 35.52-123.18 24.184-153.41 0 0 18.895 38.543 6.8008 104.29 0 0 26.449 59.703 44.586 78.594 18.137 19.648 55.168 45.344 78.594 39.297 4.5391-1.5078 5.2969-7.5547 1.5156-9.8203zm-689.96-68.016c-2.2656 1.5117-6.0469-0.75391-8.3125-3.7773-2.2656-3.0234-1.5117-7.5586 1.5117-9.0703 2.2656-1.5117 6.0469 0.75391 8.3125 3.7773 1.5078 3.7812 0.75391 7.5586-1.5117 9.0703zm85.395-89.172c-5.2891 0-9.0703-3.7773-9.0703-9.0703 0-5.2891 3.7773-9.0703 9.0703-9.0703 5.2891 0 9.0703 3.7773 9.0703 9.0703-0.003906 5.2891-4.5352 9.0703-9.0703 9.0703z"
     fill="#676767"
     id="path5"
     style="fill:#3a3a3a;fill-opacity:1" />
</svg>
